<?xml version="1.0" encoding="utf-8"?>
<!-- Generator: Adobe Illustrator 26.0.3, SVG Export Plug-In . SVG Version: 6.00 Build 0)  -->
<svg version="1.1" xmlns="http://www.w3.org/2000/svg" xmlns:xlink="http://www.w3.org/1999/xlink" x="0px" y="0px"
	 viewBox="0 0 288 560" style="enable-background:new 0 0 288 560;" xml:space="preserve">
<style type="text/css">
	.st0{opacity:0.3;fill:#ADACAC;stroke:#000000;stroke-width:2;stroke-miterlimit:10;}
	.st1{fill:#FF6700;}
</style>
<g id="Слой_1">
	<circle class="st0" cx="144" cy="150.83" r="45.57"/>
	<g transform="translate(0.000000,1119.000000) scale(0.100000,-0.100000)">
		<path class="st1" d="M1701.95,9692.32c-0.97,3.2-3.56,7.31-5.93,9.4c-0.99,0.88-37.69,23.51-81.64,50.38
			c-216.25,132.08-297.52,181.7-298.58,182.24c-1.69,0.91-7.02,2.37-8.54,2.35c-1.91-0.07-7.4-1.95-9.49-3.28
			c-2.75-1.81-6.07-5.48-7.4-8.28c-1.94-4.12-2.27-6.45-2.41-17.35c-0.15-17.24,4.54-460.16,4.93-462.99
			c0.47-3.21,1.63-6.19,3.63-9.38c1.99-3.15,4.28-5.19,7.78-6.96c4.87-2.44,11.47-2.27,16.71,0.49
			c2.95,1.56,348.83,222.5,363.13,231.96c5.93,3.91,11.55,7.87,12.47,8.77c2.32,2.27,4.65,6.27,5.55,9.57
			C1703.16,9682.91,1703.05,9688.7,1701.95,9692.32z"/>
	</g>
</g>
<g id="Слой_2">
</g>
</svg>
