<?xml version="1.0" encoding="utf-8"?>
<!-- Generator: Adobe Illustrator 26.0.3, SVG Export Plug-In . SVG Version: 6.00 Build 0)  -->
<svg version="1.1" id="Слой_1" xmlns="http://www.w3.org/2000/svg" xmlns:xlink="http://www.w3.org/1999/xlink" x="0px" y="0px"
	 viewBox="0 0 700 700" style="enable-background:new 0 0 700 700;" xml:space="preserve">
<style type="text/css">
	.st0{opacity:0.3;fill:#ADACAC;stroke:#000000;stroke-width:2;stroke-miterlimit:10;}
	.st1{fill:#FF6700;}
</style>
<ellipse class="st0" cx="350" cy="350.5" rx="344" ry="344.5"/>
<g transform="translate(0.000000,1119.000000) scale(0.100000,-0.100000)">
	<path class="st1" d="M5477.25,7765.27c-7.36,24.19-26.89,55.26-44.76,71.02c-7.45,6.62-284.51,177.75-616.19,380.82
		c-1632.26,998.39-2245.74,1373.49-2253.74,1377.54c-12.76,6.88-52.98,17.9-64.48,17.77c-14.44-0.49-55.84-14.71-71.64-24.8
		c-20.77-13.66-45.8-41.42-55.87-62.62c-14.67-31.15-17.12-48.75-18.21-131.16c-1.13-130.32,34.29-3478.4,37.19-3499.76
		c3.53-24.23,12.34-46.81,27.36-70.9c15.02-23.78,32.3-39.23,58.69-52.65c36.77-18.41,86.58-17.19,126.13,3.72
		c22.27,11.76,2632.97,1681.88,2740.92,1753.42c44.76,29.59,87.16,59.47,94.15,66.26c17.49,17.13,35.12,47.36,41.9,72.35
		C5486.34,7694.15,5485.53,7737.9,5477.25,7765.27z"/>
</g>
</svg>
